<?xml version="1.0" standalone="no"?>
<!DOCTYPE svg PUBLIC "-//W3C//DTD SVG 20010904//EN"
 "http://www.w3.org/TR/2001/REC-SVG-20010904/DTD/svg10.dtd">
<svg version="1.0" xmlns="http://www.w3.org/2000/svg"
 width="600.000000pt" height="600.000000pt" viewBox="0 0 600.000000 600.000000"
 preserveAspectRatio="xMidYMid meet">

<g transform="translate(0.000000,600.000000) scale(0.100000,-0.100000)"
fill="#000000" stroke="none">
<path d="M0 3000 l0 -3000 3000 0 3000 0 0 3000 0 3000 -3000 0 -3000 0 0
-3000z m5850 0 l0 -2850 -2850 0 -2850 0 0 2850 0 2850 2850 0 2850 0 0 -2850z"/>
<path d="M3922 4799 c-269 -47 -503 -234 -601 -480 -62 -156 -61 -134 -61
-1319 0 -1179 0 -1173 59 -1325 65 -168 199 -315 356 -390 103 -49 182 -70
324 -86 386 -44 747 193 869 571 31 96 42 179 42 333 l0 137 -254 0 -254 0 -4
-147 c-4 -136 -7 -153 -33 -211 -18 -40 -44 -77 -72 -102 -103 -90 -280 -104
-396 -30 -53 33 -97 109 -116 198 -8 37 -11 347 -11 1045 0 1062 1 1069 50
1168 50 98 105 131 236 137 116 5 172 -16 243 -94 75 -81 93 -140 99 -306 l4
-138 255 0 256 0 -6 178 c-6 187 -18 255 -64 371 -97 244 -279 408 -529 477
-70 19 -312 28 -392 13z"/>
<path d="M1160 3000 l0 -1780 255 0 255 0 0 760 0 760 153 0 153 0 202 -647
c111 -357 218 -699 237 -760 l36 -113 264 0 c215 0 265 3 265 13 0 8 -122 373
-271 813 -244 722 -269 800 -253 809 63 37 186 140 227 190 138 171 209 457
194 780 -21 436 -161 717 -423 852 -186 95 -246 103 -825 103 l-469 0 0 -1780z
m960 1282 c75 -25 144 -75 177 -131 53 -89 68 -176 67 -401 0 -269 -25 -380
-104 -458 -79 -80 -170 -102 -422 -102 l-168 0 0 556 0 556 208 -5 c114 -2
223 -9 242 -15z"/>
</g>
</svg>
